<svg xmlns="http://www.w3.org/2000/svg" width="600" height="380" viewBox="0 0 600 380" font-family="monospace, sans-serif">
  <!-- Background -->
  <rect width="600" height="380" rx="8" fill="#111"/>
  <rect width="600" height="380" rx="8" fill="none" stroke="#222" stroke-width="1"/>

  <!-- Header -->
  <text x="20" y="34" font-size="12" fill="#e8f04a" font-weight="bold" letter-spacing="3">ESTADÍSTICAS AVANZADAS</text>

  <!-- Row: Meses activos + Promedio -->
  <rect x="14" y="52" width="275" height="88" rx="6" fill="#0d0d0d" stroke="#222" stroke-width="1"/>
  <text x="30" y="92" font-size="32" fill="white" font-weight="900" font-family="sans-serif">9</text>
  <text x="30" y="110" font-size="9" fill="#444" letter-spacing="3">MESES ACTIVOS</text>
  <text x="30" y="124" font-size="9" fill="#555">últimos 12 meses</text>
  <rect x="30" y="132" width="240" height="2" rx="1" fill="#4ab8f0" opacity="0.35"/>

  <rect x="311" y="52" width="275" height="88" rx="6" fill="#0d0d0d" stroke="#222" stroke-width="1"/>
  <text x="327" y="92" font-size="32" fill="white" font-weight="900" font-family="sans-serif">3.4</text>
  <text x="327" y="110" font-size="9" fill="#444" letter-spacing="3">PROM. PARTIDOS/MES</text>
  <text x="327" y="124" font-size="9" fill="#555">en meses activos</text>
  <rect x="327" y="132" width="240" height="2" rx="1" fill="#e8f04a" opacity="0.35"/>

  <!-- Chart label -->
  <text x="14" y="166" font-size="9" fill="#555" letter-spacing="2">PARTIDOS POR MES</text>

  <!-- Bar chart -->
  <g transform="translate(14, 178)">
    <rect x="0"   y="60" width="28" height="40" rx="2" fill="#4ab8f0" opacity="0.8"/>
    <rect x="48"  y="70" width="28" height="30" rx="2" fill="#4ab8f0" opacity="0.8"/>
    <rect x="96"  y="50" width="28" height="50" rx="2" fill="#4ab8f0" opacity="0.8"/>
    <rect x="144" y="30" width="28" height="70" rx="2" fill="#4ab8f0" opacity="0.8"/>
    <rect x="192" y="55" width="28" height="45" rx="2" fill="#4ab8f0" opacity="0.8"/>
    <rect x="240" y="65" width="28" height="35" rx="2" fill="#4ab8f0" opacity="0.8"/>
    <rect x="288" y="40" width="28" height="60" rx="2" fill="#4ab8f0" opacity="0.8"/>
    <rect x="336" y="25" width="28" height="75" rx="2" fill="#4ab8f0" opacity="0.8"/>
    <rect x="384" y="45" width="28" height="55" rx="2" fill="#4ab8f0" opacity="0.8"/>
    <rect x="432" y="35" width="28" height="65" rx="2" fill="#4ab8f0" opacity="0.8"/>
    <rect x="480" y="55" width="28" height="45" rx="2" fill="#4ab8f0" opacity="0.8"/>
    <rect x="528" y="20" width="28" height="80" rx="2" fill="#4ab8f0" opacity="0.8"/>
    <rect x="14"  y="75" width="28" height="25" rx="2" fill="#4af07a" opacity="0.8"/>
    <rect x="62"  y="80" width="28" height="20" rx="2" fill="#4af07a" opacity="0.8"/>
    <rect x="110" y="65" width="28" height="35" rx="2" fill="#4af07a" opacity="0.8"/>
    <rect x="158" y="50" width="28" height="50" rx="2" fill="#4af07a" opacity="0.8"/>
    <rect x="206" y="68" width="28" height="32" rx="2" fill="#4af07a" opacity="0.8"/>
    <rect x="254" y="75" width="28" height="25" rx="2" fill="#4af07a" opacity="0.8"/>
    <rect x="302" y="58" width="28" height="42" rx="2" fill="#4af07a" opacity="0.8"/>
    <rect x="350" y="42" width="28" height="58" rx="2" fill="#4af07a" opacity="0.8"/>
    <rect x="398" y="60" width="28" height="40" rx="2" fill="#4af07a" opacity="0.8"/>
    <rect x="446" y="50" width="28" height="50" rx="2" fill="#4af07a" opacity="0.8"/>
    <rect x="494" y="70" width="28" height="30" rx="2" fill="#4af07a" opacity="0.8"/>
    <rect x="542" y="38" width="28" height="62" rx="2" fill="#4af07a" opacity="0.8"/>
    <line x1="0" y1="100" x2="572" y2="100" stroke="#1a1a1a" stroke-width="1"/>
  </g>

  <!-- Win rate label -->
  <text x="14" y="308" font-size="9" fill="#555" letter-spacing="2">WIN RATE % POR MES</text>

  <!-- Win rate line chart -->
  <g transform="translate(14, 318)">
    <polyline
      points="0,42 48,35 96,28 144,15 192,30 240,38 288,20 336,10 384,25 432,18 480,32 528,8"
      fill="none"
      stroke="#e8f04a"
      stroke-width="2"
    />
    <circle cx="0"   cy="42" r="3" fill="#e8f04a"/>
    <circle cx="48"  cy="35" r="3" fill="#e8f04a"/>
    <circle cx="96"  cy="28" r="3" fill="#e8f04a"/>
    <circle cx="144" cy="15" r="3" fill="#e8f04a"/>
    <circle cx="192" cy="30" r="3" fill="#e8f04a"/>
    <circle cx="240" cy="38" r="3" fill="#e8f04a"/>
    <circle cx="288" cy="20" r="3" fill="#e8f04a"/>
    <circle cx="336" cy="10" r="3" fill="#e8f04a"/>
    <circle cx="384" cy="25" r="3" fill="#e8f04a"/>
    <circle cx="432" cy="18" r="3" fill="#e8f04a"/>
    <circle cx="480" cy="32" r="3" fill="#e8f04a"/>
    <circle cx="528" cy="8"  r="3" fill="#e8f04a"/>
  </g>
</svg>
