<?xml version="1.0" standalone="no"?>
<!DOCTYPE svg PUBLIC "-//W3C//DTD SVG 20010904//EN"
 "http://www.w3.org/TR/2001/REC-SVG-20010904/DTD/svg10.dtd">
<svg version="1.0" xmlns="http://www.w3.org/2000/svg"
 width="1024.000000pt" height="1024.000000pt" viewBox="0 0 1024.000000 1024.000000"
 preserveAspectRatio="xMidYMid meet">

<g transform="translate(0.000000,1024.000000) scale(0.100000,-0.100000)"
fill="#000000" stroke="none">
<path d="M5274 10073 c-48 -54 -117 -132 -154 -173 -37 -41 -87 -97 -111 -125
-24 -27 -71 -79 -104 -115 -33 -36 -127 -142 -210 -235 -82 -93 -195 -219
-249 -280 -55 -60 -129 -144 -166 -185 -37 -41 -129 -145 -206 -230 -76 -86
-167 -187 -200 -225 -34 -39 -120 -135 -190 -215 -71 -80 -169 -192 -219 -250
-49 -57 -126 -145 -170 -194 -99 -112 -228 -261 -360 -416 -164 -192 -198
-232 -236 -275 -40 -44 -105 -122 -432 -515 -342 -410 -499 -600 -542 -656
-35 -44 -215 -270 -479 -600 -89 -112 -201 -260 -229 -304 -15 -24 -16 -34 -6
-74 10 -39 23 -56 78 -103 36 -31 94 -83 127 -116 71 -68 41 -67 299 -16 83
16 197 38 255 49 58 11 152 29 210 39 58 11 161 30 230 41 210 36 330 57 445
79 61 12 164 31 230 42 66 12 152 28 190 36 84 17 212 39 278 48 l47 6 -50
-95 c-70 -134 -142 -270 -182 -346 -161 -300 -384 -747 -518 -1035 -20 -44
-51 -109 -67 -145 -17 -36 -50 -105 -73 -155 -45 -98 -266 -587 -387 -860 -41
-93 -84 -188 -94 -210 -10 -22 -41 -93 -68 -158 -83 -191 -152 -349 -171 -392
-10 -22 -35 -80 -55 -130 -20 -49 -47 -112 -60 -140 -12 -27 -42 -97 -65 -155
-23 -58 -64 -157 -90 -220 -109 -260 -135 -334 -120 -328 26 9 178 127 285
221 67 59 125 107 128 107 2 0 0 -21 -5 -48 -26 -134 35 -289 161 -411 181
-174 501 -334 841 -422 230 -60 449 -60 568 -2 88 43 175 138 263 288 80 137
302 534 360 645 18 36 63 119 100 185 36 66 91 167 121 225 31 58 99 186 153
285 53 99 122 227 152 285 31 58 80 152 110 210 32 60 74 123 99 148 150 150
214 287 198 427 -5 43 -2 55 19 83 33 44 218 249 259 287 71 67 217 184 288
231 64 44 343 204 354 204 2 0 86 40 187 89 101 49 267 128 369 176 163 76
502 247 660 333 758 411 1299 853 1661 1357 294 409 483 869 530 1290 17 144
17 465 0 585 -43 319 -159 651 -313 898 -69 110 -220 292 -315 379 -165 151
-304 248 -498 346 -177 89 -229 110 -446 176 -117 36 -296 70 -452 87 -179 19
-631 13 -782 -10 -257 -39 -502 -104 -652 -172 -17 -8 -34 -14 -37 -14 -15 0
-257 -126 -310 -161 -32 -22 -61 -37 -63 -35 -4 4 61 122 128 234 9 15 39 65
66 112 28 47 75 126 106 175 31 50 69 113 85 140 15 28 70 122 122 210 109
186 142 247 138 250 -8 7 -459 35 -560 35 l-116 0 -88 -97z m560 -4 c4 -3 -26
-55 -65 -115 -144 -220 -354 -541 -754 -1149 -72 -110 -158 -242 -191 -292
-32 -51 -119 -184 -192 -295 -74 -112 -157 -241 -185 -288 -28 -47 -88 -141
-132 -210 -45 -69 -103 -159 -129 -200 -79 -126 -216 -341 -265 -416 -142
-219 -224 -355 -217 -361 4 -4 101 10 396 57 111 18 417 59 590 80 91 11 221
26 290 35 114 14 291 31 585 55 192 17 585 25 585 12 0 -10 -28 -49 -180 -252
-31 -41 -73 -100 -93 -130 -48 -70 -175 -243 -297 -401 -51 -68 -138 -182
-191 -254 -54 -71 -115 -152 -136 -180 -107 -138 -526 -692 -573 -755 -40 -55
-255 -338 -337 -444 -66 -86 -213 -278 -268 -352 -52 -70 -201 -264 -410 -534
-92 -118 -186 -240 -209 -270 -23 -30 -80 -102 -125 -160 -45 -58 -144 -184
-219 -280 -74 -96 -169 -219 -211 -272 -42 -54 -123 -159 -181 -234 -58 -74
-125 -162 -150 -193 -25 -32 -70 -91 -100 -131 -30 -40 -84 -109 -120 -154
-36 -45 -94 -120 -130 -166 -36 -46 -108 -138 -161 -204 -52 -67 -108 -139
-124 -161 -68 -93 -218 -276 -222 -271 -6 6 41 113 134 306 41 85 89 184 105
220 17 36 63 133 103 215 40 83 94 195 120 250 107 230 599 1221 715 1440 26
50 96 185 155 300 59 116 111 215 115 220 4 6 45 82 90 170 46 88 102 194 125
235 23 41 68 125 100 185 99 187 183 327 269 444 20 27 39 63 42 80 4 19 12
30 19 27 8 -3 11 6 8 29 -2 20 2 37 12 45 8 7 15 18 15 24 0 6 18 40 41 76 32
51 40 59 35 35 -3 -16 -3 -24 0 -17 3 6 14 12 24 12 11 0 28 10 40 22 11 12
20 18 20 14 0 -4 10 2 22 14 12 11 32 20 44 20 13 0 27 7 32 16 5 9 21 17 36
17 19 0 26 4 22 14 -3 8 -2 12 2 9 5 -3 13 8 19 25 10 26 9 29 -8 29 -11 0
-36 -7 -55 -15 -20 -8 -75 -20 -122 -26 -48 -6 -113 -17 -144 -25 -77 -19
-269 -59 -398 -83 -58 -11 -170 -34 -250 -51 -80 -17 -235 -48 -345 -70 -110
-22 -231 -46 -270 -55 -38 -8 -101 -19 -140 -25 -38 -6 -113 -19 -165 -30 -52
-10 -156 -30 -230 -44 -74 -13 -184 -34 -245 -45 -60 -12 -139 -25 -175 -30
-36 -6 -96 -17 -135 -25 -84 -19 -105 -20 -105 -5 0 12 77 125 229 337 53 74
116 162 141 197 25 35 72 99 104 142 33 43 107 141 165 218 148 197 248 327
286 372 6 6 55 69 110 139 55 69 134 168 176 218 41 51 103 126 136 168 71 89
249 304 272 328 9 9 163 191 343 406 590 702 774 917 1013 1188 77 87 174 198
215 246 41 48 129 150 195 225 66 76 208 242 315 370 107 127 211 248 230 270
19 21 53 59 75 83 l39 44 197 -4 c109 -1 200 -6 203 -9z m1141 -809 c39 -4
147 -18 240 -29 427 -51 572 -90 800 -210 140 -75 236 -144 324 -236 191 -199
284 -427 297 -725 26 -567 -196 -1123 -709 -1775 l-39 -50 56 59 c32 32 69 77
84 100 35 55 132 148 132 127 0 -6 -6 -14 -14 -18 -8 -4 -16 -19 -18 -33 -2
-14 -9 -24 -15 -23 -7 2 -10 -3 -7 -11 12 -32 -316 -436 -498 -612 -335 -325
-808 -662 -1183 -844 -325 -157 -609 -233 -1045 -280 -63 -7 -140 -16 -170
-21 -30 -4 -121 -8 -202 -8 l-148 -1 0 24 c0 40 184 266 217 266 8 0 1 -16
-17 -42 -53 -73 -61 -146 -19 -169 26 -13 281 -14 375 0 232 34 546 143 859
298 453 225 1050 670 1370 1022 377 413 618 801 764 1227 71 208 101 357 108
539 12 315 -34 498 -176 715 -64 98 -221 259 -301 311 -295 191 -458 257 -760
310 -172 30 -483 30 -715 -1 -223 -29 -461 -77 -580 -115 -55 -18 -102 -31
-104 -30 -14 14 63 55 219 116 225 88 654 147 875 119z m-788 -481 c36 -13 88
-64 103 -100 22 -52 4 -115 -45 -164 -82 -82 -253 -101 -327 -37 -27 23 -22
35 7 16 13 -9 51 -18 83 -21 85 -8 161 17 217 71 41 39 45 46 45 92 0 85 -48
124 -153 124 -62 0 -164 -45 -197 -87 -13 -17 -20 -21 -20 -11 0 37 80 103
144 118 47 12 111 11 143 -1z m764 -72 c33 -22 79 -96 79 -127 0 -25 -46 -114
-71 -137 -62 -57 -217 -84 -279 -48 -14 8 -20 15 -15 15 6 1 46 2 90 3 67 2
88 7 133 32 62 34 87 62 104 117 10 34 9 44 -8 75 -49 91 -193 95 -319 8 -39
-27 -51 -31 -53 -19 -6 23 18 45 83 76 51 24 73 28 141 28 68 0 87 -4 115 -23z
m699 -393 c0 -19 -6 -47 -14 -62 -58 -110 -255 -166 -341 -96 -19 15 -19 15 5
10 71 -17 110 -17 164 -2 79 23 140 80 157 146 14 55 29 57 29 4z m-2000 -103
c-14 -54 -55 -100 -122 -136 -44 -25 -65 -30 -123 -30 -71 0 -130 17 -138 39
-4 10 2 10 31 0 47 -17 123 -17 174 -2 59 17 135 90 149 141 20 74 20 74 31
51 6 -14 6 -35 -2 -63z m3299 -239 c48 -127 84 -260 108 -397 27 -154 24 -518
-5 -685 -93 -545 -363 -1051 -802 -1503 -276 -286 -580 -519 -1005 -774 -160
-96 -429 -245 -508 -281 -62 -29 -75 -18 -68 54 6 48 10 54 76 112 38 34 110
85 160 113 345 197 550 327 735 468 325 247 592 522 790 816 50 74 188 339
205 394 12 40 -10 16 -56 -61 -56 -95 -198 -282 -303 -400 -226 -252 -380
-386 -662 -573 -150 -100 -450 -262 -471 -254 -7 2 76 74 184 159 396 314 606
495 751 648 472 500 745 1022 817 1565 26 191 29 364 11 547 -9 91 -19 179
-22 195 l-5 30 15 -33 c8 -18 33 -81 55 -140z m-2646 48 c-13 -79 -65 -138
-150 -170 -60 -22 -139 -26 -178 -8 -40 18 -30 24 43 24 144 0 260 95 263 218
l1 31 13 -30 c7 -16 11 -45 8 -65z m713 -127 c13 -72 -42 -159 -129 -205 -55
-29 -179 -32 -217 -5 -24 17 -24 17 35 11 47 -5 73 -2 118 14 108 38 161 105
162 200 0 44 2 50 12 35 7 -9 16 -32 19 -50z m764 -201 c0 -36 -7 -60 -29 -94
-49 -77 -114 -109 -221 -107 -93 1 -104 15 -17 22 132 10 234 85 244 181 7 61
23 59 23 -2z m-2785 -39 c-14 -74 -77 -137 -168 -167 -57 -19 -97 -20 -120 -3
-15 10 -8 12 43 14 102 3 196 67 221 153 15 51 34 53 24 3z m635 -90 c0 -35
-8 -58 -31 -94 -69 -108 -273 -155 -359 -83 -42 36 -37 50 7 23 80 -50 231
-21 305 58 30 31 58 91 58 123 0 11 5 20 10 20 6 0 10 -21 10 -47z m705 -197
c-12 -74 -61 -133 -150 -179 l-60 -31 -285 -7 c-157 -4 -316 -10 -355 -13 -38
-4 -117 -11 -175 -17 -373 -34 -441 -41 -495 -49 -33 -5 -96 -11 -140 -14
l-80 -6 50 20 c28 11 58 20 67 20 10 0 57 13 105 29 101 33 241 62 428 88 184
25 630 26 726 0 74 -19 139 -13 207 22 48 25 119 101 127 138 11 48 15 54 26
48 6 -5 8 -23 4 -49z m713 -244 c-32 -114 -191 -196 -316 -163 -59 16 -52 28
12 23 88 -7 149 13 210 68 43 40 56 60 71 111 19 62 20 62 26 30 4 -18 2 -49
-3 -69z m692 -28 c16 -40 11 -115 -9 -159 -45 -97 -154 -154 -267 -139 -66 8
-55 24 17 24 111 0 212 70 244 169 16 50 16 56 1 88 -19 40 -19 43 -6 43 6 0
15 -12 20 -26z m-1345 -54 c17 0 35 -52 35 -101 0 -49 -34 -141 -61 -165 -20
-18 -21 -18 -34 -1 -12 17 -14 17 -30 -5 -22 -30 -18 -18 24 65 28 56 35 83
39 150 3 45 7 76 9 70 3 -7 11 -13 18 -13z m60 -530 c9 -41 -33 -129 -78 -166
-19 -15 -55 -36 -79 -45 -51 -21 -146 -24 -170 -5 -15 11 -9 13 40 12 128 -1
261 109 262 217 0 35 16 27 25 -13z m-414 -144 c-11 -25 -25 -46 -30 -46 -18
0 -12 26 9 45 11 10 22 26 26 37 3 11 8 17 11 15 2 -3 -4 -26 -16 -51z m1092
-50 c-19 -108 -136 -196 -260 -196 -36 0 -113 22 -113 32 0 2 35 3 78 3 91 0
147 20 205 74 47 44 67 80 67 123 1 31 2 32 15 14 9 -11 12 -30 8 -50z m-1224
-148 c-16 -30 -112 -139 -117 -133 -2 2 24 43 59 91 34 48 65 82 67 76 2 -6
-2 -21 -9 -34z m377 -394 c-9 -43 -85 -127 -139 -152 -23 -11 -61 -23 -84 -27
-55 -9 -148 18 -163 46 -11 19 -10 20 17 6 90 -46 207 -23 290 57 39 39 55 63
65 101 9 37 13 44 16 26 2 -13 1 -38 -2 -57z m-1452 -1074 c1 -53 0 -55 -24
-52 -43 5 -47 36 -12 90 23 35 35 22 36 -38z m926 -224 c-8 -7 -100 -72 -205
-143 -400 -272 -712 -522 -977 -782 l-159 -154 -54 17 c-30 9 -55 21 -55 27 0
5 24 24 53 43 52 34 100 84 189 201 115 151 268 282 593 507 28 19 113 74 190
122 77 49 156 99 175 111 29 18 87 36 195 58 11 3 31 5 45 6 21 1 22 -1 10
-13z m663 -158 c8 -25 -5 -49 -23 -43 -27 9 -32 -10 -10 -30 26 -24 26 -39 -1
-25 -11 7 -28 9 -36 5 -10 -3 -26 4 -40 17 -19 18 -26 20 -32 9 -5 -7 -15 -11
-22 -9 -8 3 22 23 66 46 91 46 92 46 98 30z m-333 -162 c0 -2 -7 -7 -16 -10
-8 -3 -12 -2 -9 4 6 10 25 14 25 6z m-37 -39 c4 3 7 1 7 -5 0 -7 -7 -12 -15
-12 -20 0 -19 -12 5 -38 12 -13 16 -23 9 -27 -7 -5 -7 -11 0 -19 8 -10 4 -16
-15 -25 -14 -6 -30 -8 -36 -5 -7 4 -8 2 -4 -4 4 -7 -4 -16 -21 -23 -15 -6 -42
-18 -60 -26 -17 -8 -37 -12 -43 -8 -7 4 -21 -2 -34 -16 -27 -31 -74 -61 -85
-55 -5 3 -17 -4 -27 -15 -11 -12 -39 -32 -64 -45 -48 -26 -52 -28 -150 -89
-66 -40 -310 -221 -364 -269 -16 -14 -32 -26 -35 -25 -8 0 -94 103 -99 117 -2
6 66 56 150 111 84 55 159 105 166 111 6 6 12 7 12 3 0 -4 4 -3 8 3 10 15 120
83 217 134 44 23 88 49 97 57 9 8 22 12 30 7 7 -4 10 -4 6 1 -4 4 14 18 40 32
26 14 61 32 77 41 17 8 33 20 36 25 4 6 14 7 24 4 9 -4 14 -3 11 1 -2 4 20 20
50 34 30 15 51 22 48 16 -5 -8 -1 -9 10 -5 10 4 20 7 22 7 3 0 2 6 -2 13 -6 9
-5 9 8 0 8 -7 18 -10 21 -6z m-1342 -194 c-19 -36 -114 -123 -171 -158 -81
-49 -186 -71 -278 -57 -60 9 -70 8 -94 -9 -38 -26 -41 -24 -18 13 15 26 19 45
15 88 -3 30 -1 46 3 35 19 -52 44 -84 73 -94 103 -36 292 28 412 140 69 64 72
67 58 42z m-621 -612 c123 -35 296 -110 360 -156 55 -40 96 -83 87 -91 -3 -4
-46 14 -96 40 -93 48 -282 116 -322 116 -22 0 -22 -1 8 -32 52 -56 49 -71 -23
-114 -16 -9 -10 -14 40 -40 74 -37 149 -105 140 -127 -7 -18 -13 -16 -179 55
-83 36 -244 85 -305 93 -19 2 -66 7 -103 11 -37 4 -70 11 -73 15 -8 14 13 46
87 129 38 43 69 83 69 89 0 5 12 19 28 31 24 20 35 22 102 17 41 -4 122 -20
180 -36z m-380 -366 c119 -18 181 -36 287 -85 132 -61 230 -127 264 -177 17
-24 29 -47 26 -49 -3 -3 -23 4 -46 15 -68 35 -150 63 -169 57 -9 -3 -42 -38
-72 -78 -30 -39 -67 -84 -82 -99 -15 -15 -25 -29 -22 -31 2 -3 -7 -11 -21 -18
-14 -7 -25 -16 -25 -20 0 -4 27 -26 60 -50 179 -125 354 -353 337 -439 -3 -14
-47 -100 -96 -190 -50 -90 -91 -166 -91 -168 0 -6 -120 -223 -135 -245 -10
-16 -17 -7 -53 65 -23 45 -58 103 -79 128 -61 73 -169 163 -234 197 l-60 31
-47 -34 c-26 -19 -89 -79 -141 -135 -52 -55 -103 -103 -115 -106 -12 -3 -72
11 -134 30 -172 54 -297 76 -469 83 -84 3 -153 10 -153 15 0 10 229 297 254
317 9 7 16 17 16 22 0 12 -42 11 -74 -1 -39 -14 -32 1 34 82 33 40 84 102 113
137 28 35 75 89 102 120 28 31 74 88 104 126 99 127 118 143 177 151 51 6 57
10 110 73 105 122 287 291 314 291 14 0 68 -7 120 -15z m-1181 -1425 c10 -5
47 -14 83 -20 73 -11 213 -53 233 -70 7 -6 16 -26 19 -44 6 -29 13 -36 62 -55
101 -38 157 -99 146 -157 -6 -31 -37 -39 -102 -25 -28 6 -54 11 -57 11 -3 0
23 -27 58 -59 35 -32 61 -62 58 -65 -3 -3 -73 25 -155 63 -249 115 -445 159
-666 149 -59 -3 -108 -4 -108 -2 0 3 43 53 96 113 87 99 141 141 179 141 8 0
15 4 15 9 0 19 108 28 139 11z m-174 -369 c149 -18 384 -99 445 -155 14 -12
63 -50 110 -84 95 -69 121 -91 168 -145 60 -71 39 -75 -62 -13 -232 145 -594
258 -826 259 -112 1 -162 -12 -207 -55 l-23 -21 0 41 c0 23 7 59 15 80 34 85
168 117 380 93z m1015 -393 c12 -13 27 -32 32 -43 10 -18 10 -19 -6 -6 -20 17
-60 71 -52 71 3 0 15 -10 26 -22z"/>
<path d="M4085 5530 c-3 -11 -12 -20 -20 -20 -9 0 -11 -7 -7 -22 4 -16 7 -18
10 -8 3 8 13 23 23 33 20 19 25 37 10 37 -5 0 -13 -9 -16 -20z"/>
<path d="M4020 5470 c-8 -5 -11 -12 -8 -16 10 -9 38 3 38 16 0 12 -10 13 -30
0z"/>
<path d="M1658 5222 c-26 -9 -50 -21 -55 -26 -11 -12 69 3 82 15 5 5 17 9 28
9 10 0 15 5 12 10 -8 12 -9 12 -67 -8z"/>
<path d="M7856 6204 c-23 -23 -20 -30 4 -9 11 10 20 20 20 22 0 7 -9 2 -24
-13z"/>
<path d="M6320 4255 c14 -7 27 -11 30 -9 6 7 -22 24 -40 23 -9 0 -5 -6 10 -14z"/>
<path d="M5880 3980 c-12 -8 -9 -10 13 -10 16 0 26 4 22 10 -8 12 -16 12 -35
0z"/>
<path d="M5935 3980 c-3 -5 -1 -10 4 -10 6 0 11 5 11 10 0 6 -2 10 -4 10 -3 0
-8 -4 -11 -10z"/>
<path d="M5776 3951 c-13 -5 -16 -10 -8 -15 11 -6 52 9 52 19 0 7 -22 5 -44
-4z"/>
<path d="M5895 3950 c-8 -13 5 -13 25 0 13 8 13 10 -2 10 -9 0 -20 -4 -23 -10z"/>
<path d="M5833 3943 c-18 -7 -16 -23 2 -23 8 0 15 7 15 15 0 8 -1 15 -2 14 -2
0 -9 -3 -15 -6z"/>
<path d="M5788 3913 c7 -3 16 -2 19 1 4 3 -2 6 -13 5 -11 0 -14 -3 -6 -6z"/>
<path d="M5687 3886 c-11 -27 43 -51 58 -26 4 6 11 8 16 5 5 -3 6 1 3 9 -5 14
-8 14 -21 1 -21 -22 -42 -19 -36 5 6 22 -12 28 -20 6z"/>
</g>
</svg>
